<?xml version="1.0" encoding="utf-8"?>
<!-- Generator: Adobe Illustrator 22.0.0, SVG Export Plug-In . SVG Version: 6.00 Build 0)  -->
<svg version="1.1" id="Слой_1" xmlns="http://www.w3.org/2000/svg" xmlns:xlink="http://www.w3.org/1999/xlink" x="0px" y="0px"
	 viewBox="0 0 100 100" style="enable-background:new 0 0 100 100;" xml:space="preserve">
<style type="text/css">
	.st0{fill:#E9F4FC;}
	.st1{fill:url(#SVGID_1_);}
	.st2{fill:url(#SVGID_2_);}
	.st3{fill:url(#SVGID_3_);}
	.st4{fill:url(#SVGID_4_);}
	.st5{fill:url(#SVGID_5_);}
	.st6{fill:url(#SVGID_6_);}
	.st7{fill:url(#SVGID_7_);}
	.st8{fill:url(#SVGID_8_);}
	.st9{fill:url(#SVGID_9_);}
	.st10{fill:url(#SVGID_10_);}
	.st11{fill:url(#SVGID_11_);}
	.st12{fill:url(#SVGID_12_);}
	.st13{fill:url(#SVGID_13_);}
</style>
<g>
	<path class="st0" d="M54,14.7c-1.6-0.9-3.5-0.9-5.1,0L21.5,30.3c-1.6,0.9-2.6,2.6-2.6,4.5v31.3c0,1.8,1,3.5,2.6,4.4l27.4,15.8
		c1.6,0.9,3.5,0.9,5.1,0l27.4-15.8c1.6-0.9,2.6-2.6,2.6-4.4v-33c0-0.8-0.4-1.6-1.1-2L54,14.7z"/>
	<g>
		
			<linearGradient id="SVGID_1_" gradientUnits="userSpaceOnUse" x1="111.1447" y1="-314.0446" x2="188.6615" y2="-347.5529" gradientTransform="matrix(0.866 0.5 0.5 1.4434 66.9377 463.0178)">
			<stop  offset="0" style="stop-color:#1570A3"/>
			<stop  offset="1" style="stop-color:#B9D7E4"/>
		</linearGradient>
		<path class="st1" d="M47.8,84.2L22.5,69.6c-1.3-0.7-2.3-2.7-2.3-4.3V37.1c0-1.7,1-2.4,2.3-1.7L47.8,50c1.3,0.7,2.3,2.7,2.3,4.3
			v28.2C50,84.1,49,84.9,47.8,84.2z"/>
		<g>
			
				<linearGradient id="SVGID_2_" gradientUnits="userSpaceOnUse" x1="136.8765" y1="-333.3067" x2="146.08" y2="-333.3067" gradientTransform="matrix(0.866 0.5 0 1.1547 -87.3951 373.9137)">
				<stop  offset="0" style="stop-color:#F28B6C"/>
				<stop  offset="1" style="stop-color:#C7586B"/>
			</linearGradient>
			<path class="st2" d="M39.1,62.1c0,2.5-1.8,3.5-4,2.3c-2.2-1.3-4-4.3-4-6.9c0-2.5,1.8-3.5,4-2.3S39.1,59.6,39.1,62.1z"/>
			
				<linearGradient id="SVGID_3_" gradientUnits="userSpaceOnUse" x1="147.0672" y1="-324.436" x2="156.2707" y2="-324.436" gradientTransform="matrix(0.866 0.5 0 1.1547 -87.3951 373.9137)">
				<stop  offset="0" style="stop-color:#F28B6C"/>
				<stop  offset="1" style="stop-color:#C7586B"/>
			</linearGradient>
			<path class="st3" d="M47.9,77.4c0,2.5-1.8,3.5-4,2.3s-4-4.3-4-6.9c0-2.5,1.8-3.5,4-2.3S47.9,74.9,47.9,77.4z"/>
			
				<linearGradient id="SVGID_4_" gradientUnits="userSpaceOnUse" x1="126.5685" y1="-342.6757" x2="135.772" y2="-342.6757" gradientTransform="matrix(0.866 0.5 0 1.1547 -87.3951 373.9137)">
				<stop  offset="0" style="stop-color:#F28B6C"/>
				<stop  offset="1" style="stop-color:#C7586B"/>
			</linearGradient>
			<path class="st4" d="M30.2,46.1c0,2.5-1.8,3.5-4,2.3c-2.2-1.3-4-4.3-4-6.9c0-2.5,1.8-3.5,4-2.3S30.2,43.6,30.2,46.1z"/>
		</g>
	</g>
	<g>
		<linearGradient id="SVGID_5_" gradientUnits="userSpaceOnUse" x1="56.2992" y1="26.317" x2="43.4447" y2="40.9086">
			<stop  offset="0" style="stop-color:#DFF5FB"/>
			<stop  offset="0.2502" style="stop-color:#D3EEF6"/>
			<stop  offset="1" style="stop-color:#AED8E6"/>
		</linearGradient>
		<path class="st5" d="M78.8,33.2L53.6,47.8c-1.3,0.7-3.4,0.6-4.9-0.2L24.3,33.5c-1.4-0.8-1.6-2.1-0.4-2.8l25.3-14.6
			c1.3-0.7,3.4-0.6,4.9,0.2l24.4,14.1C79.9,31.2,80.1,32.4,78.8,33.2z"/>
		
			<linearGradient id="SVGID_6_" gradientUnits="userSpaceOnUse" x1="-428.2082" y1="145.538" x2="-419.0046" y2="145.538" gradientTransform="matrix(0.866 -0.5 1 0.5774 272.9417 -263.781)">
			<stop  offset="0" style="stop-color:#F28B6C"/>
			<stop  offset="1" style="stop-color:#C7586B"/>
		</linearGradient>
		<path class="st6" d="M55.6,29.7c2.2,1.3,2.2,3.3,0,4.6c-2.2,1.3-5.8,1.3-7.9,0s-2.2-3.3,0-4.6S53.4,28.5,55.6,29.7z"/>
	</g>
	<g>
		<g>
			
				<linearGradient id="SVGID_7_" gradientUnits="userSpaceOnUse" x1="414.4205" y1="302.0794" x2="491.9373" y2="268.5711" gradientTransform="matrix(0.866 -0.5 -0.5 1.4434 -215.3796 -90.9748)">
				<stop  offset="0" style="stop-color:#1570A3"/>
				<stop  offset="1" style="stop-color:#B9D7E4"/>
			</linearGradient>
			<path class="st7" d="M80.3,69.6L55,84.2c-1.3,0.7-2.3,0-2.3-1.7V54.3c0-1.7,1-3.6,2.3-4.3l25.3-14.6c1.3-0.7,2.3,0,2.3,1.7v28.2
				C82.5,66.9,81.5,68.9,80.3,69.6z"/>
		</g>
		<g>
			
				<linearGradient id="SVGID_8_" gradientUnits="userSpaceOnUse" x1="156.7966" y1="250.3482" x2="138.2879" y2="296.3476" gradientTransform="matrix(0.866 -0.5 0 1.1547 -61.0468 -180.0789)">
				<stop  offset="0" style="stop-color:#F28B6C"/>
				<stop  offset="1" style="stop-color:#C7586B"/>
			</linearGradient>
			<path class="st8" d="M71.1,58.1c0,2.5-1.8,5.6-4,6.9c-2.2,1.3-4,0.3-4-2.3c0-2.5,1.8-5.6,4-6.9C69.3,54.5,71.1,55.6,71.1,58.1z"
				/>
			
				<linearGradient id="SVGID_9_" gradientUnits="userSpaceOnUse" x1="168.8817" y1="254.5107" x2="150.3731" y2="300.5101" gradientTransform="matrix(0.866 -0.5 0 1.1547 -61.0468 -180.0789)">
				<stop  offset="0" style="stop-color:#F28B6C"/>
				<stop  offset="1" style="stop-color:#C7586B"/>
			</linearGradient>
			<path class="st9" d="M79.9,63.2c0,2.5-1.8,5.6-4,6.9c-2.2,1.3-4,0.3-4-2.3c0-2.5,1.8-5.6,4-6.9C78.1,59.7,79.9,60.7,79.9,63.2z"
				/>
			
				<linearGradient id="SVGID_10_" gradientUnits="userSpaceOnUse" x1="150.812" y1="248.2248" x2="132.3033" y2="294.2242" gradientTransform="matrix(0.866 -0.5 0 1.1547 -61.0468 -180.0789)">
				<stop  offset="0" style="stop-color:#F28B6C"/>
				<stop  offset="1" style="stop-color:#C7586B"/>
			</linearGradient>
			<path class="st10" d="M62.1,73.2c0,2.5-1.8,5.6-4,6.9c-2.2,1.3-4,0.3-4-2.3c0-2.5,1.8-5.6,4-6.9C60.4,69.6,62.1,70.7,62.1,73.2z"
				/>
			
				<linearGradient id="SVGID_11_" gradientUnits="userSpaceOnUse" x1="162.4132" y1="252.3472" x2="143.9046" y2="298.3466" gradientTransform="matrix(0.866 -0.5 0 1.1547 -61.0468 -180.0789)">
				<stop  offset="0" style="stop-color:#F28B6C"/>
				<stop  offset="1" style="stop-color:#C7586B"/>
			</linearGradient>
			<path class="st11" d="M79.9,42.2c0,2.5-1.8,5.6-4,6.9c-2.2,1.3-4,0.3-4-2.3c0-2.5,1.8-5.6,4-6.9C78.1,38.6,79.9,39.6,79.9,42.2z"
				/>
			
				<linearGradient id="SVGID_12_" gradientUnits="userSpaceOnUse" x1="144.4319" y1="246.0908" x2="125.9232" y2="292.0902" gradientTransform="matrix(0.866 -0.5 0 1.1547 -61.0468 -180.0789)">
				<stop  offset="0" style="stop-color:#F28B6C"/>
				<stop  offset="1" style="stop-color:#C7586B"/>
			</linearGradient>
			<path class="st12" d="M62.1,52.4c0,2.5-1.8,5.6-4,6.9c-2.2,1.3-4,0.3-4-2.3c0-2.5,1.8-5.6,4-6.9C60.4,48.9,62.1,49.9,62.1,52.4z"
				/>
		</g>
	</g>
</g>
<linearGradient id="SVGID_13_" gradientUnits="userSpaceOnUse" x1="33.6654" y1="60.4173" x2="13.1654" y2="69.2923">
	<stop  offset="0" style="stop-color:#1570A3"/>
	<stop  offset="1" style="stop-color:#B9D7E4"/>
</linearGradient>
<path class="st13" d="M24.4,55.4c-2.3-6.8-3.1-13.8-2.5-20.3c-0.9-0.2-1.6,0.6-1.6,2v28.2c0,1.7,1,3.6,2.3,4.3l25.3,14.6
	c0.7,0.4,1.3,0.3,1.7-0.1C38.5,79.4,29,69.1,24.4,55.4z"/>
</svg>
