<?xml version="1.0" encoding="utf-8"?>
<!-- Generator: Adobe Illustrator 22.0.0, SVG Export Plug-In . SVG Version: 6.00 Build 0)  -->
<svg version="1.1" id="Слой_1" xmlns="http://www.w3.org/2000/svg" xmlns:xlink="http://www.w3.org/1999/xlink" x="0px" y="0px"
	 viewBox="0 0 100 100" style="enable-background:new 0 0 100 100;" xml:space="preserve">
<style type="text/css">
	.st0{fill:url(#SVGID_1_);}
	.st1{fill:#E6F5FC;}
	.st2{fill:url(#SVGID_2_);}
	.st3{fill:url(#SVGID_3_);}
	.st4{fill:url(#SVGID_4_);}
	.st5{fill:url(#SVGID_5_);}
	.st6{fill:url(#SVGID_6_);}
	.st7{fill:url(#SVGID_7_);}
	.st8{fill:url(#SVGID_8_);}
	.st9{fill:#5792AD;}
	.st10{opacity:0.3;fill:#FFFFFF;enable-background:new    ;}
	.st11{fill:url(#SVGID_9_);}
</style>
<g>
	<g>
		<g>
			<linearGradient id="SVGID_1_" gradientUnits="userSpaceOnUse" x1="126.7482" y1="98.1447" x2="1.5816" y2="19.1447">
				<stop  offset="0" style="stop-color:#1570A3"/>
				<stop  offset="1" style="stop-color:#B9D7E4"/>
			</linearGradient>
			<path class="st0" d="M79.9,35.1L73,23.4l-37.6-9.8L21.1,68.8c5.7,8.8,15.6,14.6,26.9,14.6c8.3,0,15.8-3.1,21.5-8.3L79.9,35.1z"/>
			<path class="st1" d="M79.9,35.1l-7.3-1.9c-1.1-0.3-1.8-1.4-1.5-2.5l1.9-7.3L79.9,35.1z"/>
		</g>
	</g>
	<g>
		<g>
			
				<linearGradient id="SVGID_2_" gradientUnits="userSpaceOnUse" x1="20.3946" y1="54.6298" x2="79.2068" y2="54.6298" gradientTransform="matrix(0.9189 -0.3945 0.3945 0.9189 -13.2143 17.4213)">
				<stop  offset="0" style="stop-color:#DFF5FB"/>
				<stop  offset="1" style="stop-color:#AED8E6"/>
			</linearGradient>
			<path class="st2" d="M75.8,24l-10.9-8l-38.4,5.9l8.6,56.3c8.7,5.8,20.1,7.2,30.5,2.8c7.6-3.3,13.3-9.1,16.5-16.1L75.8,24z"/>
			<path class="st1" d="M75.8,24l-7.4,1.1c-1.1,0.2-2.2-0.6-2.4-1.7L64.9,16L75.8,24z"/>
		</g>
	</g>
	<g>
		
			<linearGradient id="SVGID_3_" gradientUnits="userSpaceOnUse" x1="82.6585" y1="49.9643" x2="30.2596" y2="16.8922" gradientTransform="matrix(0.987 -0.1605 0.1605 0.987 -5.443 7.0928)">
			<stop  offset="0" style="stop-color:#1570A3"/>
			<stop  offset="1" style="stop-color:#B9D7E4"/>
		</linearGradient>
		<path class="st3" d="M63.3,26.5l-28.6,4.7c-0.3,0.1-0.7-0.2-0.7-0.5l0,0c-0.1-0.3,0.2-0.7,0.5-0.7l28.6-4.7
			c0.3-0.1,0.7,0.2,0.7,0.5v0C63.9,26.1,63.7,26.4,63.3,26.5z"/>
		
			<linearGradient id="SVGID_4_" gradientUnits="userSpaceOnUse" x1="82.6585" y1="54.6842" x2="30.2596" y2="21.6122" gradientTransform="matrix(0.987 -0.1605 0.1605 0.987 -5.443 7.0928)">
			<stop  offset="0" style="stop-color:#1570A3"/>
			<stop  offset="1" style="stop-color:#B9D7E4"/>
		</linearGradient>
		<path class="st4" d="M64.1,31.1l-28.6,4.7c-0.3,0.1-0.7-0.2-0.7-0.5l0,0c-0.1-0.3,0.2-0.7,0.5-0.7l28.6-4.7
			c0.3-0.1,0.7,0.2,0.7,0.5v0C64.7,30.7,64.4,31.1,64.1,31.1z"/>
		
			<linearGradient id="SVGID_5_" gradientUnits="userSpaceOnUse" x1="82.6585" y1="59.494" x2="30.2596" y2="26.422" gradientTransform="matrix(0.987 -0.1605 0.1605 0.987 -5.443 7.0928)">
			<stop  offset="0" style="stop-color:#1570A3"/>
			<stop  offset="1" style="stop-color:#B9D7E4"/>
		</linearGradient>
		<path class="st5" d="M64.9,35.9l-28.6,4.7c-0.3,0.1-0.7-0.2-0.7-0.5v0c-0.1-0.3,0.2-0.7,0.5-0.7l28.6-4.7c0.3-0.1,0.7,0.2,0.7,0.5
			l0,0C65.4,35.5,65.2,35.8,64.9,35.9z"/>
		
			<linearGradient id="SVGID_6_" gradientUnits="userSpaceOnUse" x1="82.6585" y1="64.3039" x2="30.2596" y2="31.2319" gradientTransform="matrix(0.987 -0.1605 0.1605 0.987 -5.443 7.0928)">
			<stop  offset="0" style="stop-color:#1570A3"/>
			<stop  offset="1" style="stop-color:#B9D7E4"/>
		</linearGradient>
		<path class="st6" d="M65.6,40.6L37,45.3c-0.3,0.1-0.7-0.2-0.7-0.5l0,0c-0.1-0.3,0.2-0.7,0.5-0.7l28.6-4.7c0.3-0.1,0.7,0.2,0.7,0.5
			l0,0C66.2,40.2,66,40.6,65.6,40.6z"/>
		
			<linearGradient id="SVGID_7_" gradientUnits="userSpaceOnUse" x1="82.6585" y1="69.8327" x2="30.2596" y2="36.7607" gradientTransform="matrix(0.987 -0.1605 0.1605 0.987 -5.443 7.0928)">
			<stop  offset="0" style="stop-color:#1570A3"/>
			<stop  offset="1" style="stop-color:#B9D7E4"/>
		</linearGradient>
		<path class="st7" d="M66.5,46.1l-28.6,4.7c-0.3,0.1-0.7-0.2-0.7-0.5v0c-0.1-0.3,0.2-0.7,0.5-0.7l28.6-4.7c0.3-0.1,0.7,0.2,0.7,0.5
			l0,0C67.1,45.7,66.9,46,66.5,46.1z"/>
	</g>
	<g id="Лупа">
		<linearGradient id="SVGID_8_" gradientUnits="userSpaceOnUse" x1="28.6584" y1="74.44" x2="47.2162" y2="74.44">
			<stop  offset="0" style="stop-color:#F28B6C"/>
			<stop  offset="1" style="stop-color:#C7586B"/>
		</linearGradient>
		<polygon class="st8" points="32.5,86.5 28.7,83.6 39,69.7 45.4,62.4 47.2,63.7 42.2,72 		"/>
		<path class="st9" d="M45.1,66.4l-1.6-1.1c-0.7-0.5-0.9-1.4-0.4-2.1l0.3-0.4c0.2-0.3,0.6-0.4,0.9-0.2l3.1,2.2
			c0.3,0.2,0.4,0.6,0.2,0.9L47.2,66C46.8,66.7,45.8,66.9,45.1,66.4z"/>
		<path class="st10" d="M54.3,65.3c-7.5,0-13.6-6.1-13.6-13.6S46.7,38,54.3,38s13.6,6.1,13.6,13.6S61.8,65.3,54.3,65.3z"/>
		<path class="st9" d="M54.3,65.3c-7.5,0-13.6-6.1-13.6-13.6S46.7,38,54.3,38s13.6,6.1,13.6,13.6S61.8,65.3,54.3,65.3z M54.3,40.2
			c-6.3,0-11.4,5.1-11.4,11.4S48,63,54.3,63s11.4-5.1,11.4-11.4S60.6,40.2,54.3,40.2z"/>
		<linearGradient id="SVGID_9_" gradientUnits="userSpaceOnUse" x1="39.2612" y1="51.6678" x2="69.3929" y2="51.6678">
			<stop  offset="0" style="stop-color:#F28B6C"/>
			<stop  offset="1" style="stop-color:#C7586B"/>
		</linearGradient>
		<path class="st11" d="M54.3,66.7c-8.3,0-15.1-6.8-15.1-15.1c0-8.3,6.8-15.1,15.1-15.1c8.3,0,15.1,6.8,15.1,15.1
			S62.6,66.7,54.3,66.7z M54.3,38.8c-7.1,0-12.8,5.8-12.8,12.8s5.8,12.8,12.8,12.8s12.8-5.8,12.8-12.8S61.4,38.8,54.3,38.8z"/>
	</g>
</g>
</svg>
