<?xml version="1.0" encoding="utf-8"?>
<!-- Generator: Adobe Illustrator 22.0.0, SVG Export Plug-In . SVG Version: 6.00 Build 0)  -->
<svg version="1.1" id="Слой_1" xmlns="http://www.w3.org/2000/svg" xmlns:xlink="http://www.w3.org/1999/xlink" x="0px" y="0px"
	 viewBox="0 0 100 100" style="enable-background:new 0 0 100 100;" xml:space="preserve">
<style type="text/css">
	.st0{fill:url(#SVGID_1_);}
	.st1{fill:none;stroke:#FFFFFF;stroke-miterlimit:10;}
	.st2{fill:url(#SVGID_2_);}
	.st3{fill:url(#SVGID_3_);}
	.st4{opacity:0.3;fill:#FFFFFF;enable-background:new    ;}
	.st5{fill:url(#SVGID_4_);}
	.st6{fill:url(#SVGID_5_);}
</style>
<g>
	<g>
		<linearGradient id="SVGID_1_" gradientUnits="userSpaceOnUse" x1="14.2508" y1="49.5574" x2="86.0508" y2="49.5574">
			<stop  offset="0" style="stop-color:#DFF5FB"/>
			<stop  offset="0.2502" style="stop-color:#D3EEF6"/>
			<stop  offset="1" style="stop-color:#AED8E6"/>
		</linearGradient>
		<circle class="st0" cx="50.2" cy="49.6" r="35.9"/>
		<g>
			<path class="st1" d="M14.6,49c0-0.2,0.1-0.3,0.1-0.5c0-0.6,0-1.1,0.1-1.7c0-0.6,0.1-1.2,0.2-1.9c0.1-0.9,0.3-1.8,0.5-2.7
				c0.3-1.2,0.6-2.4,1-3.6c1.2-3.7,3-7.2,5.4-10.3c2.4-3.2,5.3-5.9,8.6-8.2c3.1-2.1,6.4-3.6,10-4.7c1.1-0.3,2.3-0.6,3.4-0.8
				c0.6-0.1,1.3-0.2,1.9-0.3c0.5-0.1,1-0.1,1.5-0.2c0.8-0.1,1.6-0.1,2.3-0.1c0.6,0,1.2,0,1.7,0c0.4,0,0.8,0,1.3,0.1
				c0.4,0,0.8,0.1,1.1,0.1s0.7,0.1,1,0.1c0.5,0.1,0.9,0.1,1.4,0.2c0.8,0.1,1.6,0.3,2.4,0.5c2.3,0.5,4.6,1.3,6.8,2.3
				c3.6,1.7,6.9,3.9,9.7,6.7c3,2.9,5.4,6.2,7.2,9.9c1.1,2.3,2,4.7,2.6,7.2c0.2,1,0.4,2,0.6,3c0.1,0.7,0.2,1.4,0.3,2.1
				c0.1,1.2,0.2,2.3,0.2,3.5c0,0.8,0,1.6-0.1,2.4c0,0.7-0.1,1.4-0.2,2c-0.4,2.9-1.1,5.8-2.2,8.6c-1.5,3.8-3.6,7.2-6.2,10.3
				c-2.1,2.4-4.5,4.6-7.2,6.4c-3.3,2.2-6.9,3.8-10.8,4.8c-1,0.3-2.1,0.5-3.1,0.7c-0.7,0.1-1.3,0.2-2,0.3c-0.8,0.1-1.7,0.2-2.5,0.2
				c-0.1,0-0.1,0-0.2,0c-0.7,0-1.5,0-2.2,0h-0.1c-0.3,0-0.6,0-0.9,0c-0.4,0-0.8,0-1.2-0.1c-0.6-0.1-1.1-0.1-1.7-0.2
				c-0.7-0.1-1.5-0.2-2.2-0.4c-1.4-0.3-2.9-0.7-4.3-1.2c-2.9-1-5.7-2.3-8.2-4.1c-2.8-1.9-5.3-4.1-7.5-6.7c-1.8-2.2-3.4-4.5-4.7-7.1
				c-0.9-1.8-1.6-3.6-2.2-5.5c-0.4-1.3-0.7-2.6-1-4c-0.1-0.7-0.2-1.3-0.3-2c-0.1-0.5-0.1-1.1-0.2-1.6c0-0.6-0.1-1.1-0.1-1.7
				c0-0.2,0-0.3-0.1-0.5C14.6,49.9,14.6,49.4,14.6,49z M20.2,31.7c0,0.1-0.1,0.1-0.1,0.2c-0.8,1.4-1.5,2.8-2.1,4.2
				c-1.1,2.7-1.9,5.5-2.4,8.4c-0.1,0.9-0.2,1.8-0.3,2.7c-0.1,0.8-0.1,1.5-0.1,2.3c0,1.1,0,2.2,0.1,3.4c0.1,0.7,0.1,1.3,0.2,2
				c0.1,1,0.3,1.9,0.6,2.9c0.6,2.7,1.6,5.4,2.9,7.9c1.8,3.4,4,6.5,6.8,9.2c2.7,2.6,5.7,4.7,9,6.4c2.2,1.1,4.6,1.9,7,2.5
				c0.8,0.2,1.7,0.4,2.5,0.5c0.6,0.1,1.2,0.2,1.8,0.3c0.4,0.1,0.9,0.1,1.3,0.1c0.6,0,1.1,0.1,1.7,0.1c1.1,0,2.2,0,3.3-0.1
				c0.5,0,1-0.1,1.5-0.1c0.7-0.1,1.5-0.2,2.2-0.3c0.9-0.2,1.9-0.4,2.8-0.6c3.2-0.8,6.2-2.1,9.1-3.8c0.6-0.4,1.2-0.7,1.8-1.1
				c0,0,0.1,0,0.1-0.1c0,0,0,0-0.1,0c-0.3-0.2-0.5-0.5-0.4-0.9c0-0.2,0.1-0.5,0.2-0.7c0.2-0.5,0.4-1,0.6-1.5c0.3-0.7,0.6-1.3,0.9-2
				c0.1-0.3,0.2-0.5,0.3-0.8c0.1-0.2,0.1-0.5,0.1-0.7c-0.1-0.5-0.2-1-0.3-1.5c-0.1-0.2-0.1-0.5-0.1-0.7c-0.1-0.5,0-0.9,0.2-1.3
				c0.1-0.4,0.3-0.7,0.5-1.1c0.1-0.3,0.3-0.6,0.5-0.8c0.1-0.2,0.3-0.3,0.4-0.5c0.2-0.2,0.4-0.4,0.6-0.7c0.3-0.3,0.4-0.6,0.6-1
				c0.2-0.5,0.2-1,0.1-1.5c-0.1-0.3-0.2-0.6-0.3-1c-0.1-0.3-0.2-0.6-0.3-1c-0.2-0.7-0.2-1.3,0-1.9c0.1-0.3,0.2-0.7,0.4-1
				c0.1-0.3,0.2-0.6,0.3-0.9c0.2-0.7,0.2-1.4,0-2.2c0,0,0-0.1-0.1-0.1s-0.1,0-0.2,0c-0.1,0-0.2,0.1-0.3,0.1s-0.2,0.1-0.3,0.1
				c-0.3,0.1-0.6,0-0.8-0.3l0,0c-0.1-0.1-0.2-0.2-0.4-0.3c-0.1,0-0.2-0.1-0.3-0.1c-0.4-0.1-0.8-0.1-1.2-0.1c-0.7,0-1.3,0.1-2,0.1
				c-0.3,0-0.6,0-0.9,0c-0.5,0-0.9-0.2-1.3-0.4c-0.6-0.3-1.2-0.6-1.7-1c-0.6-0.4-1.2-0.9-1.8-1.5c-0.5-0.5-1-0.9-1.5-1.4
				c-0.1-0.1-0.2-0.2-0.3-0.4c0-0.1,0-0.1-0.1-0.2c-0.1-0.4-0.1-0.8-0.1-1.1c0-0.7,0.1-1.3,0.2-2c0.2-1,0.4-1.9,0.7-2.8
				c0.1-0.5,0.2-1,0.2-1.5c0-0.2,0-0.4-0.1-0.7c-0.1-0.1-0.1-0.3-0.1-0.5c0-0.1,0.1-0.2,0.1-0.3c0.1-0.2,0.2-0.4,0.3-0.5
				c0.6-1.1,1.5-1.8,2.7-2.1c0.1,0,0.2-0.1,0.2-0.1c0.4-0.5,0.9-1.1,1.3-1.6c0.1-0.1,0.2-0.1,0.3-0.2c0.7-0.2,1.4-0.4,2.1-0.6
				c0.1,0,0.3-0.1,0.4-0.1c0.3-0.1,0.6-0.1,0.9-0.1c0.4,0,0.9,0,1.3,0c0.6,0.1,1.2,0.2,1.8,0.4c0.1,0,0.1,0,0.2,0
				c0.6,0,1.1,0,1.7,0.1c0.3,0,0.7,0.1,1,0.2c0.1,0,0.2,0.1,0.3,0.2c0.3,0.2,0.5,0.4,0.8,0.6c0.7,0.5,1.3,1,2,1.5
				c0.1,0.1,0.1,0.1,0.2,0.1c0.4,0,0.8,0,1.2,0s0.9,0,1.3,0.1h0.1c0-0.1,0-0.1,0-0.2c-0.1-0.2-0.1-0.4-0.2-0.5
				c-0.1-0.3-0.3-0.6-0.5-0.8s-0.4-0.4-0.7-0.5c-0.2-0.1-0.5-0.1-0.7-0.2c-0.1,0-0.2,0-0.4,0c-0.5-0.1-0.9-0.4-1.1-0.9
				c0-0.1-0.1-0.2-0.1-0.3c0,0,0-0.1-0.1-0.1L78,35.1c-0.1,0.1-0.1,0.2-0.2,0.3c-0.1,0.1-0.1,0.1-0.2,0.1c-0.2,0.1-0.4,0.1-0.6-0.1
				c-0.1-0.1-0.1-0.1-0.2-0.2c0-0.1-0.1-0.2-0.1-0.2c-0.1-0.2-0.1-0.3-0.2-0.5c-0.1-0.2-0.1-0.3-0.2-0.5c0,0,0-0.1-0.1-0.1
				c0,0.1-0.1,0.1-0.1,0.2c-0.1,0.2-0.2,0.3-0.4,0.4c-0.2,0.1-0.4,0.2-0.6,0.1c-0.2,0-0.3-0.1-0.5-0.2c-0.1-0.1-0.3-0.2-0.4-0.4
				c0-0.1-0.1-0.1-0.1-0.2c0-0.2,0-0.3,0-0.5s0-0.3,0-0.5v-0.1c-0.1,0.1-0.2,0.2-0.3,0.3c-0.8-0.4-1.5-0.7-2.3-1
				c-0.1,0.2-0.1,0.4-0.2,1.2c0,0.4-0.1,0.8-0.1,1.2c-0.1,0-0.1,0-0.2,0.1c-0.6,0.1-1.1,0.3-1.7,0.4c-0.4,0.1-0.7,0.1-1.1,0
				c-0.4-0.1-0.7-0.3-1-0.6c-0.4-0.3-0.7-0.7-0.9-1.1c-0.4-0.7-0.8-1.4-1.1-2.1V31c0,0,0.1,0,0.1-0.1c0.3-0.2,0.7-0.4,1-0.6
				c0,0,0.1,0,0.1-0.1c0.3-0.1,0.7-0.2,1-0.3c0.4-0.1,0.7-0.1,1.1-0.1c0.1,0,0.1,0,0.2-0.1c0.4-0.2,0.7-0.4,1.1-0.7
				c0.1,0,0.1-0.1,0.2-0.1c0.3-0.3,0.5-0.7,0.8-1c0,0,0-0.1,0.1-0.1c0-0.1,0-0.1-0.1-0.1c-0.1-0.3-0.2-0.5-0.3-0.8
				c0-0.1-0.1-0.2,0-0.2v-0.1c0-0.3,0.1-0.6,0.1-0.9v-0.1c0,0,0,0-0.1,0c-0.4-0.1-0.9-0.1-1.3-0.2c-0.1,0-0.2,0-0.2-0.1
				c-0.2-0.3-0.3-0.6-0.5-0.9c0-0.1-0.1-0.1-0.1-0.2h-0.1c-0.3,0-0.6-0.1-0.9-0.1c-0.2,0-0.3-0.1-0.5-0.2c-0.1-0.1-0.2-0.2-0.3-0.3
				s-0.1-0.3-0.2-0.4c-0.1-0.3-0.2-0.7-0.2-1.1c-0.1-0.7-0.1-1.4,0-2V20h0.1c0.4,0,0.8-0.1,1.1-0.1c0.2,0,0.3,0,0.5-0.1H68
				c-2.1-1.3-4.4-2.4-6.7-3.2c-1.2-0.4-2.9-0.9-3.2-0.9C58,15.8,58,15.9,57.9,16c-0.4,0.7-0.8,1.3-1.2,2c-0.1,0.1-0.1,0.2-0.3,0.2
				c-0.1,0-0.3,0-0.4,0.1c-0.3,0.1-0.6,0.1-0.9,0.2c-0.1,0-0.1,0-0.2,0.1c-0.4,0.5-0.9,1-1.3,1.5c-0.5,0.6-1.1,1.3-1.6,1.9l-0.1,0.1
				h-0.1c-0.3-0.1-0.7-0.3-0.9-0.6c-0.3-0.3-0.6-0.6-0.8-1s-0.4-0.9-0.5-1.4s-0.2-1-0.2-1.5c0-0.1,0-0.2,0-0.3
				c0.1-0.2,0.1-0.4,0.2-0.6v-0.1c-0.1,0.1-0.1,0.1-0.2,0.1c-0.3,0.2-0.5,0.4-0.8,0.6c-0.1,0.1-0.2,0.1-0.3,0.2
				c-0.3,0.3-0.7,0.6-1,0.9l-0.1,0.1c-0.1-0.1-0.1-0.2-0.1-0.2s0-0.1-0.1-0.1s-0.1-0.1-0.1-0.1c0-0.1-0.1-0.1-0.1-0.2
				c-0.2-0.2-0.5-0.4-0.7-0.6c-0.1,0-0.1,0-0.2,0c-0.3,0-0.5,0-0.8,0c-0.2,0-0.3,0-0.4,0.1c-0.3,0.1-0.6,0.2-0.9,0.2
				c-0.4,0-0.7-0.1-0.9-0.4l-0.1-0.1c-0.1,0-0.2,0.1-0.3,0.1c-0.2,0.2-0.5,0.3-0.7,0.5c-0.1,0.1-0.1,0.1-0.2,0.2
				c-0.4,0.3-0.8,0.5-1.3,0.8l-0.1,0.1l-0.1,0.1c-0.1,0.4-0.2,0.8-0.1,1.3c0,0.1,0,0.3,0.1,0.4c0.1,0.2,0.2,0.3,0.5,0.3h0.1
				c0.4-0.1,0.7-0.3,1-0.5c0.1-0.1,0.3-0.2,0.4-0.3c0.2-0.2,0.3-0.4,0.4-0.6v-0.1c0.2-0.4,0.5-0.4,0.7-0.3c0.1,0,0.2,0.1,0.3,0.1
				c0.2,0.1,0.4,0.1,0.5,0s0.2-0.1,0.3-0.2c0.1-0.1,0.2-0.2,0.3-0.3c0.2-0.2,0.5-0.4,0.8-0.5c0.4-0.1,0.8,0,1.1,0.4c0,0,0,0,0,0.1
				c0.1,0.2,0.2,0.3,0.4,0.4c0.1,0.1,0.2,0.1,0.3,0.2c0.1,0.1,0.2,0.2,0.3,0.3c0.2,0.2,0.2,0.4,0.2,0.6c0,0.2-0.1,0.4-0.2,0.5
				c-0.1,0.1-0.2,0.3-0.2,0.4c-0.1,0.1-0.2,0.3-0.2,0.4v0.1h0.1c0.1,0,0.2-0.1,0.3-0.1c0.1-0.1,0.2-0.1,0.3-0.2h0.1v0.1
				c0,0.5-0.1,0.9-0.1,1.4c-0.1,0.3-0.2,0.7-0.3,1s-0.3,0.5-0.5,0.7c-0.3,0.3-0.7,0.4-1.2,0.3c-0.3,0-0.5-0.2-0.7-0.3L45,24.4
				c-0.1-0.1-0.2-0.1-0.2-0.2c-0.2-0.1-0.3-0.1-0.5,0c-0.1,0.1-0.2,0.1-0.2,0.2c-0.1,0.1-0.2,0.3-0.3,0.5c0,0.1-0.1,0.2-0.2,0.2
				c-0.4,0.1-0.8,0.2-1.3,0.3s-0.9,0-1.4,0c-0.1,0-0.2,0-0.2,0c-0.5,0.2-1.1,0.3-1.6,0.5c-0.1,0-0.2,0.1-0.3,0.1
				c-0.3,0.2-0.6,0.4-1,0.5c-0.2,0.1-0.4,0.1-0.6,0.2c-0.3,0-0.5,0-0.7-0.1c0,0,0,0-0.1,0c-0.2,0.2-0.5,0.4-0.7,0.5
				c-0.2,0.2-0.5,0.3-0.7,0.5c-0.2,0.1-0.5,0.3-0.8,0.4c-0.3,0.1-0.5,0.2-0.8,0.4c-0.3,0.1-0.5,0.2-0.8,0.3v0.1
				c0,0.3-0.1,0.5-0.1,0.8c-0.1,0.6-0.2,1.1-0.3,1.7c0,0.3-0.1,0.6-0.1,1c0,0.1-0.1,0.2-0.1,0.2c-0.2,0.2-0.6,0.2-0.8,0.1
				c-0.1-0.1-0.2-0.1-0.3-0.2c-0.1-0.1-0.2-0.3-0.3-0.5c-0.2-0.5-0.3-1-0.4-1.5v-0.1c-0.1-0.3-0.2-0.5-0.4-0.7s-0.4-0.3-0.6-0.3
				c-0.3-0.1-0.6-0.2-1-0.2c-0.1,0-0.3,0-0.4,0c-0.5,0-1,0.2-1.4,0.3c-1.1,0.4-2,1.2-2.7,2.1c0,0.1-0.1,0.1-0.1,0.2
				c-0.1,0.4-0.2,0.8-0.2,1.2c0,0.3,0,0.5,0.1,0.8c0.1,0.4,0.4,0.6,0.7,0.6c0.2,0,0.4,0,0.6,0c0.2,0,0.4-0.1,0.7-0.2h0.1
				c0.3,0.1,0.5,0.2,0.7,0.5s0.3,0.6,0.1,0.9c-0.1,0.2-0.2,0.3-0.3,0.4c-0.1,0.2-0.3,0.3-0.4,0.4c-0.1,0.1-0.3,0.2-0.4,0.3
				c-0.1,0.1-0.2,0.2-0.2,0.3s0,0.2,0,0.2c0,0.1,0.1,0.1,0.2,0.2c0.1,0.1,0.3,0.2,0.4,0.2c0.1,0,0.1,0,0.2,0.1c0,0,0,0,0,0.1
				c-0.1,0.5-0.1,1-0.1,1.6c0,0.3,0,0.6,0,0.9c0,0.6,0.3,1,0.8,1.3c0.1,0,0.1,0.1,0.2,0.1c0.3,0.2,0.6,0.4,0.9,0.4
				c0.1,0,0.3,0.1,0.4,0.1c0.4,0,0.7-0.1,0.9-0.4c0.2-0.2,0.4-0.4,0.5-0.7c0-0.1,0.1-0.2,0.2-0.2c0.4-0.3,0.9-0.4,1.4-0.2
				c0.3,0.1,0.5,0.3,0.7,0.5c0.1,0.1,0.1,0.1,0.2,0.1c0.5,0.2,1,0.5,1.5,0.7c0.1,0,0.1,0.1,0.2,0.1c0.3,0.1,0.5,0.1,0.7,0.2
				c0.8,0.3,1.6,0.8,2.1,1.6c0.1,0.1,0.1,0.1,0.2,0.1c0.9,0.3,1.8,0.8,2.5,1.3c1.3,0.9,2.1,2.1,2.6,3.7c0,0.1,0.1,0.1,0.1,0.2
				c0.3,0.2,0.5,0.5,0.7,0.8c0.3,0.4,0.5,0.8,0.7,1.2c0,0,0,0.1,0.1,0.1c0.3,0.1,0.6,0.1,0.9,0.2c0.9,0.2,1.7,0.6,2.5,1.1
				c0.6,0.4,1.2,0.9,1.6,1.4c0.1,0.1,0.1,0.2,0.1,0.3c0,0.4,0,0.8-0.1,1.1c-0.2,1.1-0.7,2-1.6,2.6c-0.1,0-0.1,0.1-0.2,0.1
				c-0.1,0-0.1,0.1-0.1,0.2v0.1c-0.3,0.9-0.7,1.8-1,2.7c0,0.1-0.1,0.2-0.1,0.2c-0.5,0.7-1,1.4-1.5,2.1c-0.1,0.1-0.1,0.1-0.2,0.2
				c-0.2,0.1-0.4,0.2-0.6,0.4c-0.7,0.3-1.4,0.6-2.1,0.7c-0.1,0-0.2,0.1-0.2,0.1c-0.4,0.6-0.9,1.2-1.3,1.7c0,0.1-0.1,0.1-0.1,0.2
				c-0.1,0.1-0.2,0.3-0.2,0.4c-0.4,0.6-0.8,1.3-1.3,1.9c-0.1,0.1-0.1,0.2-0.2,0.2c-0.8,0.5-1.6,1.1-2.4,1.6
				c-0.1,0.1-0.2,0.1-0.2,0.2c-0.4,0.4-0.8,0.8-1.2,1.2c-0.1,0.1-0.1,0.1-0.1,0.2c-0.1,0.2-0.2,0.5-0.3,0.7
				c-0.2,0.5-0.4,0.9-0.6,1.4c0,0.1,0,0.1,0,0.2c0.1,0.4,0.1,0.8,0.2,1.2c0.2,1,0.4,1.9,0.5,2.9c0,0.1,0,0.2,0,0.3c0,0,0,0-0.1,0
				c-0.2,0-0.4,0-0.6-0.1c-0.4-0.1-0.8-0.3-1.1-0.6c-0.5-0.3-0.9-0.8-1.3-1.2c-0.6-0.7-1.1-1.4-1.6-2.2c0-0.1-0.1-0.2-0.1-0.2
				c0-0.1,0-0.3-0.1-0.4c-0.1-0.5-0.1-0.9-0.2-1.4c-0.1-0.4-0.1-0.7-0.2-1.1c0-0.1,0-0.1-0.1-0.2c-0.1-0.2-0.2-0.3-0.2-0.5
				c-0.1-0.3-0.1-0.5-0.1-0.8c0-0.5,0-1,0.1-1.5c0-0.2,0.1-0.5,0.1-0.7c0-0.3,0.1-0.6,0.1-0.9c0-0.2,0.1-0.4,0.1-0.6
				c0-0.1,0-0.1,0-0.2c-0.1-0.2-0.2-0.5-0.3-0.7c-0.1-0.4,0-0.7,0-1.1c0.1-0.4,0.1-0.7,0.2-1.1c0-0.1,0-0.1,0-0.2
				c0-0.3,0.1-0.6,0.1-0.9c0.1-0.5,0.1-1,0.2-1.5c0-0.2,0.1-0.3,0.1-0.5l-0.1-0.1c-0.2-0.2-0.4-0.4-0.5-0.7
				c-0.2-0.4-0.2-0.8-0.2-1.2c0-0.3,0.1-0.6,0.1-0.9v-0.1c-0.1,0-0.1-0.1-0.2-0.1c-0.7-0.5-1.4-1.1-1.9-1.8
				c-0.2-0.2-0.4-0.5-0.6-0.7c-0.2-0.2-0.4-0.5-0.6-0.7c-0.2-0.2-0.3-0.5-0.4-0.7C24,53,23.9,52.5,24,52.1c0-0.1,0-0.2,0-0.3
				c-0.1-0.4-0.2-0.8-0.3-1.3c0-0.5,0-1,0.1-1.5c0-0.3,0.1-0.5,0.2-0.7c0.1-0.2,0.2-0.4,0.4-0.6c0.2-0.4,0.5-0.7,0.7-1.1
				c0.3-0.4,0.5-0.7,0.8-1.1c0.2-0.3,0.4-0.7,0.5-1c0-0.1,0-0.2,0.1-0.2c0.1-0.3,0.1-0.6,0.1-0.9c-0.1-0.3-0.2-0.6-0.5-0.8L26,42.5
				c-0.4-0.3-0.7-0.6-1.1-0.8c-0.1-0.1-0.1-0.1-0.1-0.2c-0.2-0.6-0.3-1.3-0.5-1.9c0-0.1-0.1-0.2-0.2-0.3c-0.3-0.3-0.6-0.6-1-0.8
				L23,38.4c0-0.1,0-0.2,0-0.3c0-0.3,0.1-0.6,0.1-0.9c0-0.1,0-0.1,0-0.2c0,0-0.1,0-0.1-0.1c-0.4-0.2-0.9-0.4-1.3-0.7
				c-0.4-0.3-0.8-0.6-1.1-1c-0.2-0.3-0.4-0.6-0.5-1C20,33.9,20,33.7,20,33.4c0.1-0.5,0.2-1,0.3-1.5C20.3,31.8,20.3,31.8,20.2,31.7
				C20.4,31.8,20.3,31.7,20.2,31.7z M25.7,38c-0.1,0-0.1-0.1-0.2-0.1c-0.1-0.1-0.3-0.2-0.4-0.3c-0.2-0.3-0.3-0.6-0.1-0.9
				c0.1-0.2,0.2-0.3,0.4-0.4c0.2-0.1,0.3-0.2,0.5-0.3c0.1-0.1,0.2-0.2,0.3-0.3s0.1-0.2,0.1-0.2c0.1-0.1,0-0.2,0-0.4
				c-0.1-0.1-0.2-0.2-0.2-0.2c-0.1,0-0.1-0.1-0.2,0c-0.2,0-0.3,0.1-0.5,0.1c-0.3,0.1-0.6,0.1-1,0c-0.5-0.1-0.8-0.4-1-0.9
				c-0.1-0.3-0.1-0.6-0.1-0.9c0-0.5,0.1-0.9,0.2-1.3c0.1-0.2,0.2-0.5,0.3-0.7c0.8-1.1,1.8-1.8,3.1-2.3c0.4-0.1,0.8-0.2,1.2-0.3
				c0.7,0,1.3,0.1,1.9,0.3c0.2,0.1,0.4,0.2,0.6,0.4c0.3,0.3,0.6,0.7,0.6,1.1c0,0.3,0.1,0.7,0.2,1c0.1,0.2,0.1,0.3,0.2,0.5
				c0,0.1,0.1,0.1,0.1,0.2c0,0.1,0.1,0.1,0.2,0.1c0.1,0,0.1,0,0.1-0.1c0,0,0,0,0-0.1c0-0.3,0.1-0.6,0.1-0.9c0.1-0.8,0.2-1.5,0.4-2.3
				c0-0.2,0.1-0.3,0.1-0.5c1.6-0.5,3-1.3,4.3-2.4c0,0.1,0.1,0.1,0.1,0.2c0.1,0.1,0.2,0.2,0.3,0.2s0.1,0,0.2,0c0.2,0,0.4-0.1,0.6-0.2
				c0.3-0.1,0.6-0.3,0.9-0.5c0.1,0,0.1-0.1,0.2-0.1c0.6-0.2,1.2-0.4,1.8-0.5c0.1,0,0.1,0,0.2,0c0.2,0,0.3,0,0.5,0c0.4,0,0.7,0,1,0
				s0.6-0.1,0.9-0.2c0.1,0,0.1-0.1,0.2-0.1c0.1-0.1,0.2-0.3,0.3-0.4c0.1-0.1,0.2-0.3,0.4-0.4c0.3-0.2,0.7-0.2,1,0
				c0.1,0.1,0.2,0.1,0.3,0.2l0.1,0.1c0.1,0.1,0.3,0.1,0.4,0.2c0.3,0.1,0.6,0,0.8-0.2c0.1-0.1,0.2-0.2,0.2-0.3
				c0.1-0.1,0.1-0.3,0.2-0.4c0.1-0.4,0.2-0.7,0.2-1.1c0,0,0,0,0-0.1c-0.1,0-0.2,0-0.3,0.1c-0.1,0-0.2,0-0.3,0
				c-0.2,0-0.3-0.2-0.3-0.4c0-0.1,0-0.2,0-0.3s0.1-0.3,0.2-0.4c0.1-0.1,0.2-0.3,0.2-0.4c0.1-0.1,0.2-0.3,0.3-0.5
				c0.1-0.3,0.1-0.4-0.2-0.6c-0.1-0.1-0.2-0.1-0.3-0.2c-0.2-0.2-0.4-0.4-0.6-0.6c0,0,0,0,0-0.1c-0.1-0.2-0.3-0.2-0.5-0.2
				c-0.2,0.1-0.4,0.2-0.6,0.4c-0.1,0.1-0.2,0.2-0.3,0.3s-0.3,0.2-0.4,0.3c-0.2,0.1-0.3,0.1-0.5,0.2c-0.2,0-0.4,0-0.6-0.1
				c-0.1,0-0.1-0.1-0.2-0.1c0,0,0,0.1-0.1,0.1c-0.1,0.2-0.2,0.5-0.4,0.6c-0.1,0.2-0.3,0.3-0.5,0.4c-0.4,0.3-0.8,0.5-1.3,0.7
				c-0.1,0-0.2,0.1-0.3,0.1c-0.4,0-0.7-0.2-0.9-0.6c0-0.1-0.1-0.2-0.1-0.2c0-0.2-0.1-0.3-0.1-0.5c0-0.5,0.1-0.9,0.2-1.4
				c0-0.1,0.1-0.2,0.2-0.2c0.4-0.3,0.9-0.6,1.3-0.9c0.1-0.1,0.3-0.2,0.4-0.3c0.2-0.2,0.4-0.4,0.7-0.5c0.1-0.1,0.3-0.1,0.4-0.2
				c0.3-0.1,0.5,0,0.7,0.3l0,0c0,0.1,0.1,0.1,0.2,0.1c0.1,0,0.2,0,0.3,0c0.3,0,0.5-0.1,0.7-0.2c0.1,0,0.1,0,0.2-0.1
				c0.3,0,0.6,0,0.9,0c0.1,0,0.3,0,0.4,0c0.1,0.1,0.2,0.1,0.3,0.2c0.3,0.2,0.6,0.4,0.8,0.7c0,0,0,0,0.1,0l0.1-0.1
				c0.5-0.4,1-0.9,1.5-1.2c0.1,0,0.1-0.1,0.2-0.1c0,0,0,0,0.1-0.1c-0.1-0.2-0.6-1.3-0.7-1.4h-0.1c-0.6,0-1.2,0-1.7,0
				c-0.7,0-1.4,0.1-2.1,0.1c-0.2,0-0.5,0-0.7,0.1c-0.8,0.1-1.6,0.3-2.4,0.5c-2.8,0.6-5.4,1.6-7.9,2.9c-3.4,1.7-6.4,4-9.1,6.7
				c-1.7,1.7-3.1,3.5-4.4,5.5c-0.1,0.1-0.1,0.3-0.1,0.4c0,0.2,0.1,0.2,0.2,0.2c0.1,0,0.2,0,0.2,0v0.1c-0.1,0.7-0.3,1.4-0.4,2.1
				c0,0.1,0,0.3,0,0.4c0.1,0.3,0.2,0.6,0.4,0.9c0.2,0.3,0.5,0.5,0.7,0.7c0.6,0.4,1.2,0.7,1.9,1c0.1,0,0.1,0,0.2,0.1
				c0,0.2,0,0.3,0,0.5s0,0.3-0.1,0.5c0,0.2-0.1,0.3-0.1,0.5c0.1,0.1,0.1,0.1,0.2,0.1c0.3,0.2,0.6,0.5,0.8,0.7
				c0.1,0.1,0.1,0.1,0.1,0.2c0.2,0.6,0.3,1.3,0.5,1.9c0,0.1,0.1,0.2,0.1,0.2c0.3,0.2,0.6,0.4,0.8,0.6c0.1,0.1,0.2,0.1,0.3,0.2
				c0.3,0.2,0.5,0.4,0.6,0.7c0.1,0.2,0.1,0.4,0.1,0.6c0,0.3,0,0.7-0.1,1c-0.1,0.5-0.3,1-0.6,1.4c-0.2,0.3-0.4,0.6-0.6,0.8
				c-0.3,0.4-0.6,0.8-0.9,1.2c-0.2,0.2-0.3,0.5-0.4,0.7c-0.1,0.1-0.1,0.3-0.2,0.4c-0.1,0.6-0.2,1.2-0.1,1.8c0,0.4,0.1,0.7,0.3,1.1
				c0,0.1,0,0.1,0,0.2c-0.1,0.4-0.1,0.8,0.1,1.1c0.1,0.3,0.3,0.5,0.4,0.7c0.2,0.2,0.3,0.4,0.5,0.6c0.2,0.2,0.4,0.4,0.5,0.7
				c0.6,0.8,1.4,1.5,2.3,2.1c0,0,0.1,0,0.1,0.1v0.1c-0.1,0.3-0.2,0.6-0.2,1c0,0.3,0,0.6,0.1,0.9c0.1,0.4,0.4,0.8,0.8,1l0,0v0.1
				c0,0.3-0.1,0.6-0.1,0.9c-0.1,0.5-0.1,1-0.2,1.5c-0.1,0.4-0.1,0.8-0.2,1.3c-0.1,0.4-0.2,0.8-0.2,1.3c0,0.2,0,0.5,0.1,0.7
				c0,0.1,0.1,0.3,0.2,0.4l0,0c0,0,0,0,0,0.1c-0.1,0.4-0.1,0.9-0.2,1.3c0,0.2-0.1,0.5-0.1,0.7c-0.1,0.3-0.1,0.7-0.2,1
				c0,0.4,0,0.7,0,1.1c0,0.2,0.1,0.4,0.1,0.6c0,0.1,0.1,0.2,0.2,0.3c0.1,0.1,0.1,0.1,0.1,0.2c0.1,0.4,0.1,0.8,0.2,1.1
				c0.1,0.6,0.2,1.2,0.3,1.9c0,0.1,0,0.2,0.1,0.2c0.1,0.1,0.1,0.2,0.2,0.3c0.4,0.7,0.9,1.4,1.5,2c0.3,0.3,0.7,0.6,1,0.9
				c0.2,0.2,0.5,0.3,0.7,0.4h0.1c0,0,0,0,0-0.1c-0.1-0.3-0.1-0.6-0.2-0.8c-0.2-0.9-0.3-1.9-0.5-2.8c0-0.1,0-0.2,0-0.3
				c0.4-0.8,0.7-1.6,1.1-2.4c0-0.1,0.1-0.1,0.1-0.2c0.4-0.4,0.8-0.8,1.3-1.2c0.1-0.1,0.2-0.2,0.3-0.3c0.8-0.5,1.5-1,2.3-1.6
				c0.1,0,0.1-0.1,0.2-0.2c0.4-0.7,0.9-1.3,1.3-2c0.1-0.1,0.1-0.2,0.2-0.3c0,0,0-0.1,0.1-0.1c0.5-0.7,1-1.3,1.6-2
				c0.1-0.1,0.1-0.1,0.2-0.1c0.3-0.1,0.7-0.1,1-0.2c0.6-0.2,1.1-0.4,1.6-0.7c0.1-0.1,0.2-0.1,0.3-0.2c0.5-0.7,0.9-1.3,1.4-2
				c0.1-0.1,0.1-0.2,0.1-0.3c0.3-0.9,0.7-1.8,1-2.8c0.1-0.2,0.1-0.3,0.3-0.4c1.2-0.8,1.7-1.9,1.7-3.3c0-0.1,0-0.2-0.1-0.3
				c-0.3-0.4-0.7-0.8-1.2-1c-1.1-0.7-2.3-1.2-3.5-1.4c-0.1,0-0.1,0-0.2,0c-0.1-0.1-0.1-0.3-0.2-0.4c-0.2-0.5-0.5-1-0.8-1.4
				c-0.1-0.2-0.3-0.4-0.5-0.5C41,49.1,41,49.1,41,49c-0.2-0.9-0.7-1.8-1.3-2.5c-1-1.1-2.2-1.9-3.7-2.3c-0.1,0-0.2-0.1-0.2-0.1
				c-0.6-0.9-1.5-1.5-2.6-1.7c-0.1,0-0.2,0-0.3-0.1c-0.5-0.3-1.1-0.5-1.6-0.8c-0.1,0-0.1-0.1-0.2-0.2c-0.1-0.1-0.2-0.2-0.3-0.2
				c-0.1-0.1-0.2-0.2-0.4-0.2c-0.3-0.1-0.6,0.1-0.8,0.3c-0.1,0.2-0.3,0.5-0.5,0.6c-0.5,0.5-1.1,0.7-1.8,0.5
				c-0.4-0.1-0.8-0.3-1.1-0.5c-0.1,0-0.1-0.1-0.2-0.1c-0.7-0.4-1.1-1-1.1-1.8c0-0.6,0-1.2,0.1-1.8C25.7,38.3,25.7,38.2,25.7,38z
				 M65.6,38.5C65.6,38.6,65.5,38.6,65.6,38.5c-0.6,0.1-1,0.3-1.5,0.6c-0.7,0.5-1.2,1.1-1.5,1.9c0,0.1,0,0.2,0,0.3
				c0.1,0.2,0.2,0.4,0.2,0.6c0,0.4,0,0.7-0.1,1.1c0,0.2-0.1,0.4-0.1,0.6c-0.1,0.4-0.2,0.7-0.3,1.1c-0.3,1.1-0.5,2.2-0.6,3.3
				c0,0.4,0,0.7,0,1.1c0,0.2,0.1,0.3,0.1,0.5c0,0.1,0.1,0.1,0.1,0.2c0.6,0.5,1.1,1.1,1.7,1.6c0.5,0.5,1,0.9,1.5,1.3
				c0.5,0.4,1.1,0.7,1.7,0.9c0.5,0.2,1.1,0.3,1.6,0.3s1-0.1,1.4-0.1c0.5,0,0.9,0,1.4,0c0.3,0,0.5,0,0.8,0.1c0.4,0.1,0.7,0.3,0.9,0.6
				c0.1,0.1,0.2,0.1,0.3,0.1s0.1,0,0.2-0.1c0.1,0,0.2-0.1,0.2-0.1c0.1,0,0.2-0.1,0.3-0.1c0.3-0.1,0.6,0,0.7,0.3c0,0.1,0,0.1,0.1,0.2
				c0,0.1,0,0.1,0.1,0.2c0.2,0.8,0.2,1.5-0.1,2.2c-0.1,0.3-0.2,0.5-0.3,0.8c-0.1,0.4-0.3,0.7-0.4,1.1c-0.2,0.6-0.2,1.1,0,1.7
				c0.1,0.3,0.2,0.6,0.3,0.9c0.1,0.3,0.2,0.6,0.3,1c0.1,0.5,0.1,1.1,0,1.6c-0.1,0.4-0.3,0.8-0.6,1.1c-0.2,0.2-0.4,0.4-0.6,0.7
				c-0.1,0.1-0.3,0.3-0.4,0.4c-0.3,0.4-0.6,0.8-0.9,1.2c-0.1,0.2-0.2,0.4-0.3,0.6c-0.1,0.2-0.1,0.4-0.2,0.6
				c-0.1,0.3-0.1,0.6-0.1,0.8s0.1,0.5,0.1,0.7c0.1,0.5,0.2,1,0.3,1.6c0,0.1,0,0.3,0,0.4c0,0.2-0.1,0.4-0.2,0.6
				c-0.2,0.5-0.4,1-0.7,1.5c-0.3,0.7-0.6,1.3-0.9,2c-0.1,0.3-0.2,0.6-0.3,0.9c0,0.1-0.1,0.2-0.1,0.4c0,0.2,0.1,0.4,0.4,0.3
				c0.1,0,0.2,0,0.3-0.1c0.2-0.1,0.5-0.2,0.7-0.4c1.8-1.4,3.5-2.9,5-4.6c2.2-2.5,4-5.2,5.5-8.2c1.7-3.5,2.8-7.1,3.2-11
				c0.1-0.7,0.2-1.5,0.2-2.2s0.1-1.3,0.1-2c0-0.8,0-1.5-0.1-2.3c0-0.6-0.1-1.3-0.2-1.9c-0.1-0.8-0.2-1.6-0.4-2.4
				c-0.3-1.6-0.7-3.1-1.2-4.6c-1-2.9-2.3-5.6-4-8.1c-1.4-2.1-3-4-4.8-5.8c-1.5-1.5-3.2-2.8-4.9-4c-0.1-0.1-0.2-0.1-0.3-0.1
				c-0.2,0-0.4,0-0.5,0.1c-0.4,0-0.8,0.1-1.3,0.1h-0.1c0,0.1,0,0.1,0,0.2c0,0.1,0,0.3,0,0.4c0,0.4,0,0.9,0.1,1.3
				c0,0.3,0.1,0.5,0.2,0.7c0.1,0.2,0.2,0.3,0.3,0.4c0,0,0.1,0.1,0.2,0.1c0.4,0,0.7,0.1,1.1,0.1c0.1,0,0.2,0.1,0.2,0.1
				c0.2,0.3,0.4,0.6,0.5,0.9l0.1,0.1c0.2,0,0.4,0.1,0.5,0.1c0.4,0.1,0.8,0.1,1.1,0.2h0.1c0,0.2,0,0.4-0.1,0.6c0,0.3-0.1,0.6-0.1,0.9
				c0,0.1,0,0.2,0,0.3c0.1,0.3,0.2,0.6,0.4,0.8c0,0.1,0.1,0.1,0.1,0.2c0,0,0,0,0,0.1c-0.4,0.5-0.7,0.9-1.1,1.4
				c0,0.1-0.1,0.1-0.2,0.1c-0.4,0.3-0.9,0.5-1.3,0.8l-0.1,0.1c-0.1,0-0.2-0.1-0.3-0.1c-0.2,0-0.4,0-0.6,0c-0.4,0.1-0.8,0.2-1.2,0.3
				c0,0-0.1,0-0.1,0.1c-0.2,0.1-0.4,0.2-0.5,0.3c0,0-0.1,0-0.1,0.1v0.1c0.3,0.5,0.6,1.1,0.9,1.6c0.2,0.3,0.4,0.5,0.6,0.8
				c0.2,0.2,0.4,0.4,0.7,0.5c0.3,0.2,0.7,0.2,1.1,0.1c0.4-0.1,0.9-0.2,1.3-0.3c0.1,0,0.1,0,0.2-0.1c0,0,0,0,0-0.1
				c0.1-0.5,0.1-1,0.2-1.6c0-0.2,0.1-0.5,0.1-0.7c0-0.1,0.1-0.2,0.1-0.3c0.1-0.2,0.4-0.2,0.5,0c0,0.1,0.1,0.1,0.2,0.2
				c0.5,0.2,1.1,0.5,1.6,0.7c0,0,0.1,0,0.1,0.1l0.1-0.1c0.1,0,0.1-0.1,0.2-0.1c0.2-0.1,0.4,0,0.5,0.1c0.1,0.1,0.1,0.2,0.1,0.2
				c0,0.1,0.1,0.2,0.1,0.4c0,0.3,0,0.5,0,0.8c0,0.1,0,0.2,0.1,0.2l0.1,0.1c0.2,0.2,0.4,0.2,0.6,0c0.1-0.1,0.1-0.2,0.2-0.3
				c0.1-0.1,0.1-0.1,0.2-0.2c0.1-0.1,0.2-0.1,0.3-0.1c0.2,0,0.3,0,0.4,0.2c0.1,0.1,0.2,0.2,0.2,0.3c0.1,0.2,0.1,0.4,0.2,0.6
				c0,0.1,0.1,0.3,0.1,0.4c0,0.1,0.1,0.1,0.1,0.2c0.1-0.1,0.2-0.1,0.2-0.2c0.1-0.1,0.2-0.3,0.3-0.4c0-0.1,0.1-0.1,0.2-0.2
				c0.2-0.1,0.5-0.1,0.6,0.2c0,0.1,0,0.2,0.1,0.2c0,0.2,0.1,0.3,0.1,0.5c0.1,0.3,0.3,0.5,0.6,0.6c0.2,0,0.3,0.1,0.5,0.1
				c0.6,0,1.1,0.3,1.5,0.6c0.2,0.2,0.4,0.5,0.6,0.8c0.3,0.6,0.5,1.3,0.5,2v0.1c-0.1,0-0.2-0.1-0.2-0.1c-0.1,0-0.2-0.1-0.3-0.1
				c-0.3-0.1-0.7-0.1-1-0.1c-0.6,0-1.2,0-1.7,0c-0.1,0-0.2,0-0.2-0.1c0,0,0,0-0.1,0c-1-0.7-1.9-1.5-2.9-2.2
				c-0.1-0.1-0.2-0.1-0.3-0.2c-0.1,0-0.1,0-0.2-0.1c-0.5-0.1-0.9-0.2-1.4-0.2c-0.3,0-0.6,0-0.9,0c-0.1,0-0.1,0-0.2,0
				c-0.7-0.3-1.4-0.4-2.2-0.5c-0.4,0-0.7,0-1.1,0c-0.3,0-0.5,0.1-0.8,0.1c-0.7,0.2-1.4,0.4-2.1,0.6c-0.1,0-0.2,0.1-0.2,0.2
				c-0.3,0.4-0.6,0.8-0.9,1.1C65.9,38.1,65.8,38.3,65.6,38.5z M58.2,15.6c-0.1,0-0.1,0-0.2-0.1c-2.2-0.5-4.4-0.8-6.6-0.9h-0.1
				c0,0.2,0.1,0.3,0.2,0.5c0,0.1-0.1,0.1-0.1,0.2c-0.3,0.7-0.5,1.4-0.8,2.1c0,0.1-0.1,0.2,0,0.3c0.1,0.7,0.2,1.4,0.5,2.1
				c0.1,0.3,0.3,0.5,0.4,0.8c0.2,0.3,0.5,0.6,0.8,0.8c0,0,0.1,0,0.1,0.1c0-0.1,0.1-0.1,0.1-0.1c0.8-0.9,1.5-1.9,2.3-2.8
				c0.1-0.2,0.3-0.3,0.4-0.5c0-0.1,0.1-0.1,0.2-0.1c0.3,0,0.6-0.1,0.9-0.1c0.2,0,0.4-0.1,0.6-0.1C57.3,17,57.8,16.3,58.2,15.6z
				 M49.7,14.7C49.8,14.7,49.8,14.7,49.7,14.7c0.2,0.6,0.5,1,0.7,1.5l0,0c0.1-0.3,0.3-0.7,0.4-1c-0.1-0.2-0.1-0.4-0.2-0.5
				C50.5,14.7,49.9,14.7,49.7,14.7z"/>
			<path class="st1" d="M64.3,25.5c0.3-0.3,0.7-0.5,1-0.8c0-0.2-0.1-0.3-0.1-0.5c-0.1-0.2-0.1-0.5,0.2-0.7c0.2-0.1,0.4-0.2,0.6-0.2
				c0.1,0,0.2,0.1,0.3,0.1c0.1,0.1,0.2,0.2,0.3,0.3s0.1,0.2,0.2,0.3c0.1,0.1,0.2,0.2,0.3,0.2c0.4,0.2,0.7,0.4,1,0.8
				c0.6,0.6,0.9,1.4,1.1,2.2c0,0.1,0,0.1,0,0.2v0.1l-0.1,0.1c-0.3,0.2-0.5,0.4-0.8,0.6c-0.3,0.1-0.5,0.3-0.8,0.3s-0.6-0.1-0.9-0.3
				c-0.2-0.2-0.4-0.5-0.4-0.8c-0.1-0.3-0.1-0.6-0.2-0.9c0-0.1,0-0.1,0-0.2c-0.2,0.1-0.3,0.1-0.5,0.2c-0.2,0.1-0.3,0.1-0.5,0.2
				c-0.1-0.1-0.2-0.3-0.2-0.4c-0.1-0.1-0.2-0.3-0.2-0.4C64.5,25.8,64.4,25.6,64.3,25.5z M68.8,27.3L68.8,27.3
				c-0.2-0.8-0.5-1.4-1.1-2c-0.2-0.3-0.5-0.5-0.8-0.6c-0.2-0.1-0.3-0.2-0.4-0.3c-0.1-0.1-0.1-0.2-0.2-0.3c-0.1-0.1-0.1-0.2-0.2-0.2
				c0,0-0.1,0-0.1-0.1c-0.1,0-0.1,0-0.2,0c-0.1,0-0.1,0.1-0.2,0.1c0.1,0.2,0.1,0.5,0.2,0.7c0,0.1,0,0.1,0,0.2c0,0.1,0,0.1-0.1,0.2
				l-0.1,0.1c-0.2,0.1-0.4,0.3-0.6,0.4l-0.1,0.1c0.1,0.1,0.1,0.2,0.1,0.3c0.1,0.1,0.1,0.2,0.2,0.3c0.2-0.1,0.4-0.2,0.5-0.3
				c0.2-0.1,0.4-0.2,0.6-0.3c0,0.1,0,0.1,0,0.1c0.1,0.5,0.2,1.1,0.3,1.6c0,0.2,0.1,0.4,0.3,0.5c0.1,0.1,0.2,0.1,0.4,0.2
				c0.2,0,0.4,0,0.5-0.1C68.2,27.8,68.5,27.6,68.8,27.3C68.8,27.4,68.8,27.3,68.8,27.3z"/>
			<path class="st1" d="M29.2,34.9c0.1-0.2,0.2-0.5,0.4-0.7s0.4-0.4,0.7-0.4c0.1,0,0.2,0,0.4,0c0.3,0,0.5,0,0.7,0.2
				c0.1,0.1,0.2,0.2,0.3,0.2c0.1,0.1,0.2,0.2,0.3,0.2c0.2,0.1,0.3,0.2,0.5,0.2c0.3,0,0.6,0,0.8,0.1c0.2,0,0.4,0.1,0.6,0.1
				c0.1,0,0.2,0.1,0.3,0.2c0.1,0.1,0.1,0.2,0.1,0.3c0,0.2,0,0.3-0.2,0.4c-0.1,0.1-0.2,0.1-0.4,0.1s-0.4,0-0.6,0
				c-0.4,0-0.8-0.1-1.2-0.1c-0.6-0.1-1.2-0.2-1.8-0.3c-0.2,0-0.3,0-0.5-0.1C29.7,35.2,29.4,35.1,29.2,34.9L29.2,34.9z M29.7,34.7
				C29.8,34.8,29.8,34.8,29.7,34.7c0.2,0.1,0.3,0.1,0.4,0.1c0.2,0,0.3,0.1,0.5,0.1c0.8,0.2,1.7,0.3,2.5,0.4c0.3,0,0.5,0,0.8,0
				c0.1,0,0.2,0,0.3-0.1c0,0,0,0-0.1-0.1c-0.1,0-0.2-0.1-0.3-0.1c-0.2,0-0.4-0.1-0.6-0.1c-0.2,0-0.5,0-0.7-0.1
				c-0.2,0-0.5-0.1-0.7-0.2c-0.1-0.1-0.3-0.2-0.4-0.3c-0.1-0.1-0.2-0.1-0.3-0.2C31,34,30.8,34,30.7,34c-0.1,0-0.2,0-0.4,0
				C30.1,34.2,29.9,34.4,29.7,34.7z"/>
			<path class="st1" d="M57.9,21.8c-0.2,0-0.3,0-0.4,0c-0.5-0.1-0.9-0.1-1.3-0.3c-0.3-0.1-0.6-0.3-0.9-0.5c0,0,0,0-0.1-0.1
				C55,20.6,55,20.3,55.3,20c0.1-0.1,0.1-0.1,0.2-0.1c0.5-0.2,1-0.4,1.6-0.6c0.2-0.1,0.3-0.1,0.5-0.2h0.1c0.3,0.1,0.5,0.3,0.7,0.5
				c0.1,0.1,0.2,0.2,0.2,0.4c0.1,0.2,0,0.4-0.1,0.6c-0.1,0.1-0.1,0.2-0.2,0.2c-0.1,0.1-0.1,0.2-0.2,0.3C58,21.3,58,21.6,57.9,21.8
				C57.9,21.7,57.9,21.7,57.9,21.8z M57.6,21.3v-0.1c0.1-0.2,0.1-0.4,0.2-0.6c0-0.1,0.1-0.1,0.1-0.2c0.1-0.1,0.1-0.1,0.2-0.2
				c0.2-0.2,0.2-0.3,0-0.4c-0.1-0.1-0.2-0.2-0.4-0.3c-0.1-0.1-0.2-0.1-0.3,0c-0.6,0.2-1.2,0.4-1.8,0.7c0,0,0,0-0.1,0
				c-0.1,0.1-0.2,0.2-0.1,0.3l0.1,0.1c0.2,0.2,0.4,0.3,0.6,0.4c0.2,0,0.3,0.1,0.5,0.1C57,21.2,57.3,21.3,57.6,21.3z"/>
			<path class="st1" d="M35.1,36.2c0.1,0.1,0.2,0.1,0.3,0.2h0.1c0.2,0.1,0.3,0.2,0.5,0.3s0.4,0.1,0.5,0.2h0.1c0,0,0,0,0,0.1
				c-0.1,0.2-0.1,0.5-0.2,0.7c0,0.1,0,0.1-0.1,0.2c-0.1,0.2-0.2,0.2-0.4,0.2h-0.1c-0.5-0.3-1.1-0.3-1.7-0.3c-0.3,0-0.6,0-0.9,0
				c-0.1,0-0.1,0-0.2,0c-0.2-0.1-0.3-0.3-0.1-0.5c0-0.1,0.1-0.1,0.2-0.1c0.1-0.1,0.2-0.1,0.3-0.2c0.4-0.2,0.9-0.4,1.3-0.6
				C34.8,36.3,35,36.3,35.1,36.2z M35,36.7c-0.5,0.2-1,0.4-1.4,0.7c0,0,0,0-0.1,0.1c0.1,0,0.1,0,0.1,0c0.2,0,0.5,0,0.7,0
				c0.6,0,1.1,0.1,1.6,0.3c0,0,0,0,0.1,0c0-0.1,0.1-0.3,0.1-0.4H36c-0.2,0-0.3-0.1-0.4-0.2c-0.1-0.1-0.2-0.1-0.2-0.2
				C35.2,36.8,35.1,36.7,35,36.7z"/>
		</g>
	</g>
	<g id="Лупа_2_">
		<linearGradient id="SVGID_2_" gradientUnits="userSpaceOnUse" x1="22.6862" y1="75.9929" x2="41.2439" y2="75.9929">
			<stop  offset="0" style="stop-color:#F28B6C"/>
			<stop  offset="1" style="stop-color:#C7586B"/>
		</linearGradient>
		<polygon class="st2" points="26.5,88 22.7,85.2 33,71.2 39.4,63.9 41.2,65.2 36.3,73.6 		"/>
		<linearGradient id="SVGID_3_" gradientUnits="userSpaceOnUse" x1="69.7208" y1="44.893" x2="-12.6125" y2="101.893">
			<stop  offset="0" style="stop-color:#1570A3"/>
			<stop  offset="1" style="stop-color:#B9D7E4"/>
		</linearGradient>
		<path class="st3" d="M39.1,67.9l-1.6-1.1c-0.7-0.5-0.9-1.4-0.4-2.1l0.3-0.4c0.2-0.3,0.6-0.4,0.9-0.2l3.1,2.2
			c0.3,0.2,0.4,0.6,0.2,0.9l-0.3,0.4C40.8,68.2,39.8,68.4,39.1,67.9z"/>
		<path class="st4" d="M48.3,66.8c-7.5,0-13.6-6.1-13.6-13.6s6.1-13.6,13.6-13.6s13.6,6.1,13.6,13.6S55.8,66.8,48.3,66.8z"/>
		<linearGradient id="SVGID_4_" gradientUnits="userSpaceOnUse" x1="66.6498" y1="40.4571" x2="-15.6836" y2="97.4571">
			<stop  offset="0" style="stop-color:#1570A3"/>
			<stop  offset="1" style="stop-color:#B9D7E4"/>
		</linearGradient>
		<path class="st5" d="M48.3,66.8c-7.5,0-13.6-6.1-13.6-13.6s6.1-13.6,13.6-13.6s13.6,6.1,13.6,13.6S55.8,66.8,48.3,66.8z
			 M48.3,41.8c-6.3,0-11.4,5.1-11.4,11.4S42,64.6,48.3,64.6s11.4-5.1,11.4-11.4S54.6,41.8,48.3,41.8z"/>
		<linearGradient id="SVGID_5_" gradientUnits="userSpaceOnUse" x1="33.289" y1="53.2206" x2="63.4207" y2="53.2206">
			<stop  offset="0" style="stop-color:#F28B6C"/>
			<stop  offset="1" style="stop-color:#C7586B"/>
		</linearGradient>
		<path class="st6" d="M48.4,68.3c-8.3,0-15.1-6.8-15.1-15.1c0-8.3,6.8-15.1,15.1-15.1c8.3,0,15.1,6.8,15.1,15.1
			S56.7,68.3,48.4,68.3z M48.4,40.4c-7.1,0-12.8,5.8-12.8,12.8s5.8,12.8,12.8,12.8s12.8-5.8,12.8-12.8S55.4,40.4,48.4,40.4z"/>
	</g>
</g>
</svg>
